<?xml version="1.0" encoding="utf-8" standalone="no"?>
<!DOCTYPE svg PUBLIC "-//W3C//DTD SVG 1.1//EN"
  "http://www.w3.org/Graphics/SVG/1.1/DTD/svg11.dtd">
<!-- Created with matplotlib (https://matplotlib.org/) -->
<svg height="288pt" version="1.1" viewBox="0 0 432 288" width="432pt" xmlns="http://www.w3.org/2000/svg" xmlns:xlink="http://www.w3.org/1999/xlink">
 <defs>
  <style type="text/css">
*{stroke-linecap:butt;stroke-linejoin:round;}
  </style>
 </defs>
 <g id="figure_1">
  <g id="patch_1">
   <path d="M 0 288 
L 432 288 
L 432 0 
L 0 0 
z
" style="fill:#ffffff;"/>
  </g>
  <g id="axes_1">
   <g id="patch_2">
    <path d="M 64.8 244.8 
L 388.8 244.8 
L 388.8 28.8 
L 64.8 28.8 
z
" style="fill:#ffffff;"/>
   </g>
   <g id="matplotlib.axis_1">
    <g id="xtick_1">
     <g id="line2d_1">
      <path clip-path="url(#p833e95cc9f)" d="M 64.8 244.8 
L 64.8 28.8 
" style="fill:none;stroke:#000000;stroke-dasharray:1.85,0.8;stroke-dashoffset:0;stroke-opacity:0.5;stroke-width:0.5;"/>
     </g>
     <g id="line2d_2">
      <defs>
       <path d="M 0 0 
L 0 3.5 
" id="m66197a4f10" style="stroke:#000000;stroke-width:0.8;"/>
      </defs>
      <g>
       <use style="stroke:#000000;stroke-width:0.8;" x="64.8" xlink:href="#m66197a4f10" y="244.8"/>
      </g>
     </g>
     <g id="text_1">
      <!-- $\mathdefault{10^{4}}$ -->
      <defs>
       <path d="M 30.46875 1.5625 
L 21.484375 1.5625 
L 21.484375 53.515625 
L 9.765625 53.515625 
L 9.765625 58.203125 
Q 16.796875 58.203125 20.703125 60.9375 
Q 24.609375 63.671875 25.78125 69.140625 
L 30.46875 69.140625 
z
" id="SimHei-49"/>
       <path d="M 46.484375 35.15625 
Q 46.484375 21.09375 41.40625 10.9375 
Q 36.328125 0.78125 25 0.78125 
Q 13.671875 0.78125 8.390625 10.9375 
Q 3.125 21.09375 3.125 35.15625 
Q 3.125 49.21875 8.390625 59.171875 
Q 13.671875 69.140625 25 69.140625 
Q 36.328125 69.140625 41.40625 59.171875 
Q 46.484375 49.21875 46.484375 35.15625 
z
M 37.109375 35.15625 
Q 37.109375 47.65625 34.171875 54.6875 
Q 31.25 61.71875 25 61.71875 
Q 18.75 61.71875 15.625 54.6875 
Q 12.5 47.65625 12.5 35.15625 
Q 12.5 22.65625 15.625 15.421875 
Q 18.75 8.203125 25 8.203125 
Q 31.25 8.203125 34.171875 15.421875 
Q 37.109375 22.65625 37.109375 35.15625 
z
" id="SimHei-48"/>
       <path d="M 46.484375 18.75 
L 38.28125 18.75 
L 38.28125 1.5625 
L 29.296875 1.5625 
L 29.296875 18.75 
L 3.125 18.75 
L 3.125 26.171875 
L 29.296875 69.140625 
L 38.28125 69.140625 
L 38.28125 26.171875 
L 46.484375 26.171875 
z
M 29.296875 26.171875 
L 29.296875 55.078125 
L 11.71875 26.171875 
z
" id="SimHei-52"/>
      </defs>
      <g transform="translate(56.46 260.003125)scale(0.12 -0.12)">
       <use transform="translate(0 0.882812)" xlink:href="#SimHei-49"/>
       <use transform="translate(50 0.882812)" xlink:href="#SimHei-48"/>
       <use transform="translate(100.792969 32.601562)scale(0.7)" xlink:href="#SimHei-52"/>
      </g>
     </g>
    </g>
    <g id="xtick_2">
     <g id="line2d_3">
      <path clip-path="url(#p833e95cc9f)" d="M 172.8 244.8 
L 172.8 28.8 
" style="fill:none;stroke:#000000;stroke-dasharray:1.85,0.8;stroke-dashoffset:0;stroke-opacity:0.5;stroke-width:0.5;"/>
     </g>
     <g id="line2d_4">
      <g>
       <use style="stroke:#000000;stroke-width:0.8;" x="172.8" xlink:href="#m66197a4f10" y="244.8"/>
      </g>
     </g>
     <g id="text_2">
      <!-- $\mathdefault{10^{5}}$ -->
      <defs>
       <path d="M 44.140625 25.78125 
Q 44.140625 14.0625 38.46875 7.421875 
Q 32.8125 0.78125 23.4375 0.78125 
Q 15.234375 0.78125 9.953125 6.25 
Q 4.6875 11.71875 4.296875 21.09375 
L 13.28125 21.09375 
Q 13.28125 15.234375 16.015625 11.71875 
Q 18.75 8.203125 23.828125 8.203125 
Q 28.90625 8.203125 31.828125 12.5 
Q 34.765625 16.796875 34.765625 25.78125 
Q 34.765625 33.59375 32.21875 37.296875 
Q 29.6875 41.015625 25.390625 41.015625 
Q 21.875 41.015625 19.328125 39.453125 
Q 16.796875 37.890625 14.453125 33.984375 
L 6.640625 33.984375 
L 8.984375 68.359375 
L 42.578125 68.359375 
L 42.578125 60.9375 
L 16.40625 60.9375 
L 14.84375 42.96875 
Q 17.1875 45.3125 19.921875 46.484375 
Q 22.65625 47.65625 27.34375 47.65625 
Q 34.765625 47.65625 39.453125 41.984375 
Q 44.140625 36.328125 44.140625 25.78125 
z
" id="SimHei-53"/>
      </defs>
      <g transform="translate(164.46 260.003125)scale(0.12 -0.12)">
       <use transform="translate(0 0.429688)" xlink:href="#SimHei-49"/>
       <use transform="translate(50 0.429688)" xlink:href="#SimHei-48"/>
       <use transform="translate(100.792969 32.148438)scale(0.7)" xlink:href="#SimHei-53"/>
      </g>
     </g>
    </g>
    <g id="xtick_3">
     <g id="line2d_5">
      <path clip-path="url(#p833e95cc9f)" d="M 280.8 244.8 
L 280.8 28.8 
" style="fill:none;stroke:#000000;stroke-dasharray:1.85,0.8;stroke-dashoffset:0;stroke-opacity:0.5;stroke-width:0.5;"/>
     </g>
     <g id="line2d_6">
      <g>
       <use style="stroke:#000000;stroke-width:0.8;" x="280.8" xlink:href="#m66197a4f10" y="244.8"/>
      </g>
     </g>
     <g id="text_3">
      <!-- $\mathdefault{10^{6}}$ -->
      <defs>
       <path d="M 44.53125 24.21875 
Q 44.53125 13.28125 39.84375 7.03125 
Q 35.15625 0.78125 25.78125 0.78125 
Q 16.40625 0.78125 10.9375 8.59375 
Q 5.46875 16.40625 5.46875 33.984375 
Q 5.46875 50 11.125 59.5625 
Q 16.796875 69.140625 27.34375 69.140625 
Q 34.765625 69.140625 39.25 63.671875 
Q 43.75 58.203125 43.75 51.5625 
L 34.765625 51.5625 
Q 34.765625 55.46875 32.609375 58.59375 
Q 30.46875 61.71875 26.953125 61.71875 
Q 21.09375 61.71875 17.96875 55.65625 
Q 14.84375 49.609375 14.453125 37.109375 
Q 17.1875 42.1875 20.3125 44.140625 
Q 23.4375 46.09375 27.734375 46.09375 
Q 35.15625 46.09375 39.84375 40.234375 
Q 44.53125 34.375 44.53125 24.21875 
z
M 35.15625 24.21875 
Q 35.15625 31.25 32.8125 35.15625 
Q 30.46875 39.0625 26.171875 39.0625 
Q 21.09375 39.0625 18.15625 35.15625 
Q 15.234375 31.25 15.234375 25.78125 
Q 15.234375 17.1875 18.15625 12.5 
Q 21.09375 7.8125 26.171875 7.8125 
Q 29.6875 7.8125 32.421875 11.328125 
Q 35.15625 14.84375 35.15625 24.21875 
z
" id="SimHei-54"/>
      </defs>
      <g transform="translate(272.46 260.003125)scale(0.12 -0.12)">
       <use transform="translate(0 0.882812)" xlink:href="#SimHei-49"/>
       <use transform="translate(50 0.882812)" xlink:href="#SimHei-48"/>
       <use transform="translate(100.792969 32.601562)scale(0.7)" xlink:href="#SimHei-54"/>
      </g>
     </g>
    </g>
    <g id="xtick_4">
     <g id="line2d_7">
      <path clip-path="url(#p833e95cc9f)" d="M 388.8 244.8 
L 388.8 28.8 
" style="fill:none;stroke:#000000;stroke-dasharray:1.85,0.8;stroke-dashoffset:0;stroke-opacity:0.5;stroke-width:0.5;"/>
     </g>
     <g id="line2d_8">
      <g>
       <use style="stroke:#000000;stroke-width:0.8;" x="388.8" xlink:href="#m66197a4f10" y="244.8"/>
      </g>
     </g>
     <g id="text_4">
      <!-- $\mathdefault{10^{7}}$ -->
      <defs>
       <path d="M 43.359375 60.15625 
L 25 1.5625 
L 16.015625 1.5625 
L 34.765625 60.9375 
L 6.25 60.9375 
L 6.25 68.359375 
L 43.359375 68.359375 
z
" id="SimHei-55"/>
      </defs>
      <g transform="translate(380.46 260.003125)scale(0.12 -0.12)">
       <use transform="translate(0 0.429688)" xlink:href="#SimHei-49"/>
       <use transform="translate(50 0.429688)" xlink:href="#SimHei-48"/>
       <use transform="translate(100.792969 32.148438)scale(0.7)" xlink:href="#SimHei-55"/>
      </g>
     </g>
    </g>
    <g id="xtick_5">
     <g id="line2d_9">
      <defs>
       <path d="M 0 0 
L 0 2 
" id="medf979ce52" style="stroke:#000000;stroke-width:0.6;"/>
      </defs>
      <g>
       <use style="stroke:#000000;stroke-width:0.6;" x="97.31124" xlink:href="#medf979ce52" y="244.8"/>
      </g>
     </g>
    </g>
    <g id="xtick_6">
     <g id="line2d_10">
      <g>
       <use style="stroke:#000000;stroke-width:0.6;" x="116.329096" xlink:href="#medf979ce52" y="244.8"/>
      </g>
     </g>
    </g>
    <g id="xtick_7">
     <g id="line2d_11">
      <g>
       <use style="stroke:#000000;stroke-width:0.6;" x="129.822479" xlink:href="#medf979ce52" y="244.8"/>
      </g>
     </g>
    </g>
    <g id="xtick_8">
     <g id="line2d_12">
      <g>
       <use style="stroke:#000000;stroke-width:0.6;" x="140.28876" xlink:href="#medf979ce52" y="244.8"/>
      </g>
     </g>
    </g>
    <g id="xtick_9">
     <g id="line2d_13">
      <g>
       <use style="stroke:#000000;stroke-width:0.6;" x="148.840335" xlink:href="#medf979ce52" y="244.8"/>
      </g>
     </g>
    </g>
    <g id="xtick_10">
     <g id="line2d_14">
      <g>
       <use style="stroke:#000000;stroke-width:0.6;" x="156.070588" xlink:href="#medf979ce52" y="244.8"/>
      </g>
     </g>
    </g>
    <g id="xtick_11">
     <g id="line2d_15">
      <g>
       <use style="stroke:#000000;stroke-width:0.6;" x="162.333719" xlink:href="#medf979ce52" y="244.8"/>
      </g>
     </g>
    </g>
    <g id="xtick_12">
     <g id="line2d_16">
      <g>
       <use style="stroke:#000000;stroke-width:0.6;" x="167.858191" xlink:href="#medf979ce52" y="244.8"/>
      </g>
     </g>
    </g>
    <g id="xtick_13">
     <g id="line2d_17">
      <g>
       <use style="stroke:#000000;stroke-width:0.6;" x="205.31124" xlink:href="#medf979ce52" y="244.8"/>
      </g>
     </g>
    </g>
    <g id="xtick_14">
     <g id="line2d_18">
      <g>
       <use style="stroke:#000000;stroke-width:0.6;" x="224.329096" xlink:href="#medf979ce52" y="244.8"/>
      </g>
     </g>
    </g>
    <g id="xtick_15">
     <g id="line2d_19">
      <g>
       <use style="stroke:#000000;stroke-width:0.6;" x="237.822479" xlink:href="#medf979ce52" y="244.8"/>
      </g>
     </g>
    </g>
    <g id="xtick_16">
     <g id="line2d_20">
      <g>
       <use style="stroke:#000000;stroke-width:0.6;" x="248.28876" xlink:href="#medf979ce52" y="244.8"/>
      </g>
     </g>
    </g>
    <g id="xtick_17">
     <g id="line2d_21">
      <g>
       <use style="stroke:#000000;stroke-width:0.6;" x="256.840335" xlink:href="#medf979ce52" y="244.8"/>
      </g>
     </g>
    </g>
    <g id="xtick_18">
     <g id="line2d_22">
      <g>
       <use style="stroke:#000000;stroke-width:0.6;" x="264.070588" xlink:href="#medf979ce52" y="244.8"/>
      </g>
     </g>
    </g>
    <g id="xtick_19">
     <g id="line2d_23">
      <g>
       <use style="stroke:#000000;stroke-width:0.6;" x="270.333719" xlink:href="#medf979ce52" y="244.8"/>
      </g>
     </g>
    </g>
    <g id="xtick_20">
     <g id="line2d_24">
      <g>
       <use style="stroke:#000000;stroke-width:0.6;" x="275.858191" xlink:href="#medf979ce52" y="244.8"/>
      </g>
     </g>
    </g>
    <g id="xtick_21">
     <g id="line2d_25">
      <g>
       <use style="stroke:#000000;stroke-width:0.6;" x="313.31124" xlink:href="#medf979ce52" y="244.8"/>
      </g>
     </g>
    </g>
    <g id="xtick_22">
     <g id="line2d_26">
      <g>
       <use style="stroke:#000000;stroke-width:0.6;" x="332.329096" xlink:href="#medf979ce52" y="244.8"/>
      </g>
     </g>
    </g>
    <g id="xtick_23">
     <g id="line2d_27">
      <g>
       <use style="stroke:#000000;stroke-width:0.6;" x="345.822479" xlink:href="#medf979ce52" y="244.8"/>
      </g>
     </g>
    </g>
    <g id="xtick_24">
     <g id="line2d_28">
      <g>
       <use style="stroke:#000000;stroke-width:0.6;" x="356.28876" xlink:href="#medf979ce52" y="244.8"/>
      </g>
     </g>
    </g>
    <g id="xtick_25">
     <g id="line2d_29">
      <g>
       <use style="stroke:#000000;stroke-width:0.6;" x="364.840335" xlink:href="#medf979ce52" y="244.8"/>
      </g>
     </g>
    </g>
    <g id="xtick_26">
     <g id="line2d_30">
      <g>
       <use style="stroke:#000000;stroke-width:0.6;" x="372.070588" xlink:href="#medf979ce52" y="244.8"/>
      </g>
     </g>
    </g>
    <g id="xtick_27">
     <g id="line2d_31">
      <g>
       <use style="stroke:#000000;stroke-width:0.6;" x="378.333719" xlink:href="#medf979ce52" y="244.8"/>
      </g>
     </g>
    </g>
    <g id="xtick_28">
     <g id="line2d_32">
      <g>
       <use style="stroke:#000000;stroke-width:0.6;" x="383.858191" xlink:href="#medf979ce52" y="244.8"/>
      </g>
     </g>
    </g>
    <g id="text_5">
     <!-- X轴标签 -->
     <defs>
      <path d="M 47.265625 1.5625 
L 37.890625 1.5625 
L 24.609375 28.90625 
L 11.328125 1.5625 
L 1.953125 1.5625 
L 20.3125 36.71875 
L 3.90625 68.359375 
L 13.28125 68.359375 
L 24.609375 44.140625 
L 35.9375 68.359375 
L 45.3125 68.359375 
L 28.90625 36.71875 
z
" id="SimHei-88"/>
      <path d="M 43.359375 21.875 
Q 42.578125 18.359375 42.578125 14.453125 
Q 34.765625 13.671875 32.421875 13.28125 
Q 32.421875 3.515625 32.8125 -8.59375 
L 24.609375 -8.59375 
Q 25 3.515625 25 12.109375 
Q 10.546875 9.765625 6.640625 8.59375 
Q 5.46875 13.28125 4.6875 17.1875 
Q 10.546875 17.1875 25 19.53125 
L 25 32.03125 
Q 21.484375 32.03125 17.375 32.03125 
Q 13.28125 32.03125 8.203125 30.859375 
L 5.46875 38.671875 
Q 8.984375 41.015625 11.71875 47.265625 
Q 14.453125 53.515625 16.40625 60.15625 
Q 10.546875 60.15625 5.078125 59.765625 
L 5.078125 66.796875 
Q 10.546875 66.40625 17.96875 66.40625 
Q 20.3125 74.21875 21.484375 80.46875 
Q 25.390625 78.90625 30.46875 78.125 
Q 28.125 74.609375 25 66.40625 
Q 33.59375 66.40625 42.96875 66.796875 
L 42.96875 59.765625 
Q 33.984375 60.15625 23.4375 60.15625 
Q 18.359375 46.09375 14.0625 38.28125 
L 25 38.28125 
Q 25 46.875 24.609375 52.34375 
L 32.8125 52.34375 
Q 32.421875 47.65625 32.421875 38.28125 
Q 38.671875 38.671875 41.015625 38.671875 
L 41.015625 31.640625 
Q 37.890625 32.03125 32.421875 32.03125 
L 32.421875 20.3125 
Q 34.765625 20.703125 43.359375 21.875 
z
M 45.3125 59.765625 
L 64.84375 59.765625 
Q 64.84375 73.4375 64.453125 79.296875 
L 73.046875 79.296875 
Q 72.65625 73.828125 72.65625 59.765625 
L 92.96875 59.765625 
Q 92.578125 46.484375 92.578125 25.96875 
Q 92.578125 5.46875 92.96875 -7.8125 
L 84.765625 -7.8125 
L 84.765625 1.953125 
L 53.515625 1.953125 
L 53.515625 -8.59375 
L 45.3125 -8.59375 
Q 45.703125 5.46875 45.703125 25.96875 
Q 45.703125 46.484375 45.3125 59.765625 
z
M 53.515625 53.515625 
L 53.515625 34.765625 
L 64.84375 34.765625 
L 64.84375 53.515625 
z
M 53.515625 28.515625 
L 53.515625 8.203125 
L 64.84375 8.203125 
L 64.84375 28.515625 
z
M 72.65625 53.515625 
L 72.65625 34.765625 
L 84.765625 34.765625 
L 84.765625 53.515625 
z
M 72.65625 28.515625 
L 72.65625 8.203125 
L 84.765625 8.203125 
L 84.765625 28.515625 
z
" id="SimHei-36724"/>
      <path d="M 5.078125 59.375 
Q 10.9375 58.59375 18.359375 58.984375 
L 18.359375 68.359375 
Q 18.359375 74.609375 17.96875 80.46875 
L 26.171875 80.46875 
Q 25.390625 75 25.390625 68.359375 
L 25.390625 58.984375 
Q 31.640625 58.984375 39.453125 59.375 
L 39.453125 51.5625 
Q 31.640625 52.34375 25.390625 52.34375 
L 25.390625 35.546875 
Q 28.90625 37.5 31.640625 39.453125 
Q 35.9375 33.203125 40.625 25.78125 
Q 36.328125 23.828125 33.203125 21.484375 
Q 30.078125 28.90625 25.390625 35.546875 
L 25.390625 7.03125 
Q 25.390625 -1.171875 25.78125 -9.375 
L 17.96875 -9.375 
Q 18.359375 -0.78125 18.359375 7.03125 
L 18.359375 33.203125 
Q 14.84375 22.65625 8.984375 12.109375 
Q 7.03125 16.015625 3.515625 19.140625 
Q 8.59375 25.390625 12.109375 34.5625 
Q 15.625 43.75 17.1875 52.34375 
Q 10.546875 52.34375 5.078125 51.5625 
z
M 44.140625 74.21875 
Q 49.609375 73.828125 56.25 73.828125 
L 75.390625 73.828125 
Q 81.25 73.828125 86.328125 74.21875 
L 86.328125 66.40625 
Q 81.25 67.1875 75.390625 67.1875 
L 56.25 67.1875 
Q 50 67.1875 44.140625 66.40625 
z
M 39.84375 49.609375 
Q 44.921875 49.21875 52.734375 49.21875 
L 80.46875 49.21875 
Q 86.71875 49.21875 92.578125 49.609375 
L 92.578125 42.1875 
Q 86.71875 42.578125 80.46875 42.578125 
L 67.96875 42.578125 
L 67.96875 1.953125 
Q 67.96875 -5.078125 64.640625 -6.4375 
Q 61.328125 -7.8125 53.90625 -9.375 
Q 53.125 -4.6875 50.78125 0 
Q 57.03125 -0.390625 58.984375 0.1875 
Q 60.9375 0.78125 60.9375 4.6875 
L 60.9375 42.578125 
L 52.734375 42.578125 
Q 44.53125 42.578125 39.84375 41.796875 
z
M 47.265625 32.03125 
Q 51.5625 30.078125 55.859375 28.90625 
Q 53.90625 26.953125 49.796875 16.59375 
Q 45.703125 6.25 42.1875 -0.78125 
Q 38.671875 1.171875 34.375 2.734375 
Q 39.0625 9.375 42.375 17.375 
Q 45.703125 25.390625 47.265625 32.03125 
z
M 72.265625 27.734375 
Q 75.78125 29.6875 78.90625 32.421875 
Q 88.28125 19.921875 94.921875 9.375 
Q 91.015625 7.421875 87.5 4.296875 
Q 80.859375 16.40625 72.265625 27.734375 
z
" id="SimHei-26631"/>
      <path d="M 22.65625 16.796875 
Q 24.609375 17.96875 28.90625 19.921875 
Q 33.984375 10.546875 35.9375 4.296875 
Q 32.8125 3.515625 29.6875 1.5625 
Q 28.125 7.8125 22.65625 16.796875 
z
M 54.296875 4.6875 
Q 50.390625 4.296875 47.265625 3.125 
Q 46.09375 10.15625 42.578125 20.703125 
Q 45.703125 21.09375 49.609375 22.265625 
Q 51.171875 17.578125 54.296875 4.6875 
z
M 49.21875 48.4375 
Q 43.75 41.015625 30.859375 32.8125 
Q 37.109375 32.421875 43.359375 32.421875 
L 58.59375 32.421875 
Q 64.84375 32.421875 71.09375 32.8125 
Q 60.546875 37.5 49.21875 48.4375 
z
M 96.09375 34.375 
Q 92.578125 30.46875 92.1875 25.390625 
Q 77.34375 29.6875 71.875 32.421875 
L 71.875 25.390625 
Q 64.84375 25.78125 58.59375 25.78125 
L 43.359375 25.78125 
Q 36.71875 25.78125 29.296875 25.390625 
L 29.296875 32.03125 
Q 18.75 26.5625 10.15625 23.828125 
Q 8.59375 28.515625 4.6875 31.640625 
Q 22.265625 35.546875 32.8125 43.359375 
Q 43.359375 51.171875 46.09375 57.421875 
Q 50 55.859375 55.46875 54.6875 
L 53.90625 52.734375 
Q 63.28125 44.140625 75.390625 39.25 
Q 87.5 34.375 96.09375 34.375 
z
M 88.671875 -8.203125 
Q 78.125 -7.8125 72.65625 -7.8125 
L 24.21875 -7.8125 
Q 17.578125 -7.8125 10.546875 -8.203125 
L 10.546875 -0.78125 
Q 17.96875 -1.171875 23.828125 -1.171875 
L 59.765625 -1.171875 
Q 62.109375 3.125 64.640625 10.15625 
Q 67.1875 17.1875 68.75 23.046875 
Q 73.046875 21.09375 78.125 19.921875 
Q 75.390625 17.578125 73.046875 12.109375 
Q 70.703125 6.640625 67.578125 -1.171875 
Q 78.125 -1.171875 88.671875 -0.78125 
z
M 41.40625 73.046875 
Q 46.09375 73.046875 50.78125 73.4375 
L 50.78125 66.015625 
Q 42.96875 66.40625 37.109375 66.40625 
Q 38.28125 62.109375 40.234375 57.8125 
Q 35.9375 56.640625 32.8125 55.078125 
Q 32.03125 59.765625 30.078125 66.40625 
L 25.78125 66.40625 
Q 19.140625 57.8125 12.890625 52.34375 
Q 10.15625 55.859375 5.859375 57.8125 
Q 14.453125 63.28125 18.9375 70.109375 
Q 23.4375 76.953125 25 81.640625 
Q 28.90625 80.078125 33.984375 78.515625 
Q 31.25 76.171875 29.6875 73.046875 
z
M 78.515625 65.625 
Q 80.078125 62.109375 82.421875 56.640625 
Q 78.515625 55.078125 75 53.515625 
Q 74.21875 59.375 71.875 65.625 
L 64.453125 65.625 
Q 60.546875 60.15625 57.03125 55.859375 
Q 53.515625 58.59375 49.609375 59.765625 
Q 55.078125 64.453125 58.390625 69.71875 
Q 61.71875 75 63.671875 81.25 
Q 67.1875 79.296875 72.265625 78.125 
Q 69.921875 75.390625 68.359375 72.265625 
L 82.421875 72.265625 
Q 86.328125 72.265625 92.96875 72.65625 
L 92.96875 65.234375 
Q 82.8125 65.625 78.515625 65.625 
z
" id="SimHei-31614"/>
     </defs>
     <g transform="translate(205.8 274.925)scale(0.12 -0.12)">
      <use xlink:href="#SimHei-88"/>
      <use x="50" xlink:href="#SimHei-36724"/>
      <use x="150" xlink:href="#SimHei-26631"/>
      <use x="250" xlink:href="#SimHei-31614"/>
     </g>
    </g>
   </g>
   <g id="matplotlib.axis_2">
    <g id="ytick_1">
     <g id="line2d_33">
      <path clip-path="url(#p833e95cc9f)" d="M 64.8 244.8 
L 388.8 244.8 
" style="fill:none;stroke:#000000;stroke-dasharray:1.85,0.8;stroke-dashoffset:0;stroke-opacity:0.5;stroke-width:0.5;"/>
     </g>
     <g id="line2d_34">
      <defs>
       <path d="M 0 0 
L -3.5 0 
" id="m6ac2dcd356" style="stroke:#000000;stroke-width:0.8;"/>
      </defs>
      <g>
       <use style="stroke:#000000;stroke-width:0.8;" x="64.8" xlink:href="#m6ac2dcd356" y="244.8"/>
      </g>
     </g>
     <g id="text_6">
      <!-- -140 -->
      <defs>
       <path d="M 46.875 32.8125 
L 2.34375 32.8125 
L 2.34375 39.0625 
L 46.875 39.0625 
z
" id="SimHei-45"/>
      </defs>
      <g transform="translate(33.8 248.901563)scale(0.12 -0.12)">
       <use xlink:href="#SimHei-45"/>
       <use x="50" xlink:href="#SimHei-49"/>
       <use x="100" xlink:href="#SimHei-52"/>
       <use x="150" xlink:href="#SimHei-48"/>
      </g>
     </g>
    </g>
    <g id="ytick_2">
     <g id="line2d_35">
      <path clip-path="url(#p833e95cc9f)" d="M 64.8 201.6 
L 388.8 201.6 
" style="fill:none;stroke:#000000;stroke-dasharray:1.85,0.8;stroke-dashoffset:0;stroke-opacity:0.5;stroke-width:0.5;"/>
     </g>
     <g id="line2d_36">
      <g>
       <use style="stroke:#000000;stroke-width:0.8;" x="64.8" xlink:href="#m6ac2dcd356" y="201.6"/>
      </g>
     </g>
     <g id="text_7">
      <!-- -120 -->
      <defs>
       <path d="M 44.53125 1.5625 
L 4.6875 1.5625 
L 4.6875 7.8125 
Q 7.03125 14.0625 11.125 19.328125 
Q 15.234375 24.609375 23.046875 31.25 
Q 28.90625 36.328125 31.4375 40.625 
Q 33.984375 44.921875 33.984375 50 
Q 33.984375 55.078125 31.828125 58.390625 
Q 29.6875 61.71875 25 61.71875 
Q 21.09375 61.71875 18.15625 58.203125 
Q 15.234375 54.6875 15.234375 45.703125 
L 6.25 45.703125 
Q 6.640625 57.03125 11.515625 63.078125 
Q 16.40625 69.140625 25.390625 69.140625 
Q 33.984375 69.140625 38.671875 63.859375 
Q 43.359375 58.59375 43.359375 49.609375 
Q 43.359375 42.1875 39.0625 36.71875 
Q 34.765625 31.25 28.515625 25.78125 
Q 21.484375 19.53125 18.75 16.40625 
Q 16.015625 13.28125 13.671875 8.984375 
L 44.53125 8.984375 
z
" id="SimHei-50"/>
      </defs>
      <g transform="translate(33.8 205.701563)scale(0.12 -0.12)">
       <use xlink:href="#SimHei-45"/>
       <use x="50" xlink:href="#SimHei-49"/>
       <use x="100" xlink:href="#SimHei-50"/>
       <use x="150" xlink:href="#SimHei-48"/>
      </g>
     </g>
    </g>
    <g id="ytick_3">
     <g id="line2d_37">
      <path clip-path="url(#p833e95cc9f)" d="M 64.8 158.4 
L 388.8 158.4 
" style="fill:none;stroke:#000000;stroke-dasharray:1.85,0.8;stroke-dashoffset:0;stroke-opacity:0.5;stroke-width:0.5;"/>
     </g>
     <g id="line2d_38">
      <g>
       <use style="stroke:#000000;stroke-width:0.8;" x="64.8" xlink:href="#m6ac2dcd356" y="158.4"/>
      </g>
     </g>
     <g id="text_8">
      <!-- -100 -->
      <g transform="translate(33.8 162.501562)scale(0.12 -0.12)">
       <use xlink:href="#SimHei-45"/>
       <use x="50" xlink:href="#SimHei-49"/>
       <use x="100" xlink:href="#SimHei-48"/>
       <use x="150" xlink:href="#SimHei-48"/>
      </g>
     </g>
    </g>
    <g id="ytick_4">
     <g id="line2d_39">
      <path clip-path="url(#p833e95cc9f)" d="M 64.8 115.2 
L 388.8 115.2 
" style="fill:none;stroke:#000000;stroke-dasharray:1.85,0.8;stroke-dashoffset:0;stroke-opacity:0.5;stroke-width:0.5;"/>
     </g>
     <g id="line2d_40">
      <g>
       <use style="stroke:#000000;stroke-width:0.8;" x="64.8" xlink:href="#m6ac2dcd356" y="115.2"/>
      </g>
     </g>
     <g id="text_9">
      <!-- -80 -->
      <defs>
       <path d="M 44.921875 20.703125 
Q 44.921875 10.9375 39.453125 5.859375 
Q 33.984375 0.78125 24.609375 0.78125 
Q 15.234375 0.78125 9.765625 5.859375 
Q 4.296875 10.9375 4.296875 20.703125 
Q 4.296875 25.78125 7.421875 29.875 
Q 10.546875 33.984375 16.015625 35.9375 
Q 11.328125 37.890625 8.78125 41.40625 
Q 6.25 44.921875 6.25 50.390625 
Q 6.25 58.984375 11.71875 64.0625 
Q 17.1875 69.140625 24.609375 69.140625 
Q 32.03125 69.140625 37.5 64.0625 
Q 42.96875 58.984375 42.96875 50.390625 
Q 42.96875 44.921875 40.421875 41.40625 
Q 37.890625 37.890625 33.203125 35.9375 
Q 38.671875 33.984375 41.796875 29.875 
Q 44.921875 25.78125 44.921875 20.703125 
z
M 34.375 50.390625 
Q 34.375 56.640625 31.640625 59.375 
Q 28.90625 62.109375 24.609375 62.109375 
Q 20.3125 62.109375 17.578125 59.375 
Q 14.84375 56.640625 14.84375 50.390625 
Q 14.84375 44.140625 17.765625 41.59375 
Q 20.703125 39.0625 24.609375 39.0625 
Q 28.515625 39.0625 31.4375 41.59375 
Q 34.375 44.140625 34.375 50.390625 
z
M 35.9375 20.703125 
Q 35.9375 26.171875 33 29.296875 
Q 30.078125 32.421875 24.609375 32.421875 
Q 19.140625 32.421875 16.203125 29.296875 
Q 13.28125 26.171875 13.28125 20.703125 
Q 13.28125 14.453125 16.40625 11.125 
Q 19.53125 7.8125 24.609375 7.8125 
Q 29.6875 7.8125 32.8125 11.125 
Q 35.9375 14.453125 35.9375 20.703125 
z
" id="SimHei-56"/>
      </defs>
      <g transform="translate(39.8 119.301562)scale(0.12 -0.12)">
       <use xlink:href="#SimHei-45"/>
       <use x="50" xlink:href="#SimHei-56"/>
       <use x="100" xlink:href="#SimHei-48"/>
      </g>
     </g>
    </g>
    <g id="ytick_5">
     <g id="line2d_41">
      <path clip-path="url(#p833e95cc9f)" d="M 64.8 72 
L 388.8 72 
" style="fill:none;stroke:#000000;stroke-dasharray:1.85,0.8;stroke-dashoffset:0;stroke-opacity:0.5;stroke-width:0.5;"/>
     </g>
     <g id="line2d_42">
      <g>
       <use style="stroke:#000000;stroke-width:0.8;" x="64.8" xlink:href="#m6ac2dcd356" y="72"/>
      </g>
     </g>
     <g id="text_10">
      <!-- -60 -->
      <g transform="translate(39.8 76.101562)scale(0.12 -0.12)">
       <use xlink:href="#SimHei-45"/>
       <use x="50" xlink:href="#SimHei-54"/>
       <use x="100" xlink:href="#SimHei-48"/>
      </g>
     </g>
    </g>
    <g id="ytick_6">
     <g id="line2d_43">
      <path clip-path="url(#p833e95cc9f)" d="M 64.8 28.8 
L 388.8 28.8 
" style="fill:none;stroke:#000000;stroke-dasharray:1.85,0.8;stroke-dashoffset:0;stroke-opacity:0.5;stroke-width:0.5;"/>
     </g>
     <g id="line2d_44">
      <g>
       <use style="stroke:#000000;stroke-width:0.8;" x="64.8" xlink:href="#m6ac2dcd356" y="28.8"/>
      </g>
     </g>
     <g id="text_11">
      <!-- -40 -->
      <g transform="translate(39.8 32.901562)scale(0.12 -0.12)">
       <use xlink:href="#SimHei-45"/>
       <use x="50" xlink:href="#SimHei-52"/>
       <use x="100" xlink:href="#SimHei-48"/>
      </g>
     </g>
    </g>
    <g id="text_12">
     <!-- Y轴标签 -->
     <defs>
      <path d="M 47.65625 68.359375 
L 29.296875 31.640625 
L 29.296875 1.5625 
L 20.3125 1.5625 
L 20.3125 31.640625 
L 1.953125 68.359375 
L 10.9375 68.359375 
L 24.609375 39.84375 
L 25 39.84375 
L 38.671875 68.359375 
z
" id="SimHei-89"/>
     </defs>
     <g transform="translate(28.253125 157.8)rotate(-90)scale(0.12 -0.12)">
      <use xlink:href="#SimHei-89"/>
      <use x="50" xlink:href="#SimHei-36724"/>
      <use x="150" xlink:href="#SimHei-26631"/>
      <use x="250" xlink:href="#SimHei-31614"/>
     </g>
    </g>
   </g>
   <g id="line2d_45">
    <path clip-path="url(#p833e95cc9f)" d="M -1 28.075312 
L 64.8 68.67818 
L 101.52 91.099783 
L 127.44 106.686188 
L 149.04 119.41573 
L 166.32 129.35607 
L 181.44 137.826206 
L 196.56 146.044849 
L 211.68 153.983883 
L 224.64 160.555358 
L 239.76 167.95239 
L 254.88 175.077217 
L 270 181.961572 
L 287.28 189.58433 
L 306.72 197.917263 
L 330.48 207.854891 
L 360.72 220.255877 
L 388.8 231.627008 
L 388.8 231.627008 
" style="fill:none;stroke:#ff0000;stroke-linecap:square;stroke-width:1.5;"/>
   </g>
   <g id="patch_3">
    <path d="M 64.8 244.8 
L 64.8 28.8 
" style="fill:none;stroke:#000000;stroke-linecap:square;stroke-linejoin:miter;stroke-width:0.8;"/>
   </g>
   <g id="patch_4">
    <path d="M 388.8 244.8 
L 388.8 28.8 
" style="fill:none;stroke:#000000;stroke-linecap:square;stroke-linejoin:miter;stroke-width:0.8;"/>
   </g>
   <g id="patch_5">
    <path d="M 64.8 244.8 
L 388.8 244.8 
" style="fill:none;stroke:#000000;stroke-linecap:square;stroke-linejoin:miter;stroke-width:0.8;"/>
   </g>
   <g id="patch_6">
    <path d="M 64.8 28.8 
L 388.8 28.8 
" style="fill:none;stroke:#000000;stroke-linecap:square;stroke-linejoin:miter;stroke-width:0.8;"/>
   </g>
   <g id="patch_7">
    <path d="M 180.433144 120.96822 
Q 177.152345 126.145898 174.469962 130.379171 
" style="fill:none;stroke:#000000;stroke-linecap:round;"/>
    <path d="M 176.385141 129.225008 
L 174.469962 130.379171 
L 174.695739 128.15453 
L 176.385141 129.225008 
z
" style="fill:#1f77b4;stroke:#000000;stroke-linecap:round;"/>
   </g>
   <g id="text_13">
    <!-- -88.25 -->
    <defs>
     <path d="M 17.1875 1.5625 
L 8.203125 1.5625 
L 8.203125 10.15625 
L 17.1875 10.15625 
z
" id="SimHei-46"/>
    </defs>
    <g style="fill:#ff0000;" transform="translate(167.858191 115.734665)scale(0.12 -0.12)">
     <use xlink:href="#SimHei-45"/>
     <use x="50" xlink:href="#SimHei-56"/>
     <use x="100" xlink:href="#SimHei-56"/>
     <use x="150" xlink:href="#SimHei-46"/>
     <use x="200" xlink:href="#SimHei-50"/>
     <use x="250" xlink:href="#SimHei-53"/>
    </g>
   </g>
  </g>
 </g>
 <defs>
  <clipPath id="p833e95cc9f">
   <rect height="216" width="324" x="64.8" y="28.8"/>
  </clipPath>
 </defs>
</svg>
