<?xml version="1.0" ?><svg enable-background="new 0 0 24 24" id="Layer_1" version="1.1" viewBox="0 0 24 24" xml:space="preserve" xmlns="http://www.w3.org/2000/svg" xmlns:xlink="http://www.w3.org/1999/xlink"><g><path d="M12,9c-3.0322266,0-5.5,2.6914063-5.5,6s2.4677734,6,5.5,6s5.5-2.6914063,5.5-6S15.0322266,9,12,9z    M9.9472656,13.7236328C9.859375,13.8984375,9.6826172,14,9.5,14c-0.0751953,0-0.1513672-0.0166016-0.2236328-0.0527344   L8.5,13.5585938l-0.7763672,0.3886719c-0.2480469,0.1240234-0.546875,0.0224609-0.6708984-0.2236328   c-0.1230469-0.2470703-0.0234375-0.546875,0.2236328-0.6708984l1-0.5c0.140625-0.0703125,0.3066406-0.0703125,0.4472656,0l1,0.5   C9.9707031,13.1767578,10.0703125,13.4765625,9.9472656,13.7236328z M13.4472656,12.2236328   C13.359375,12.3984375,13.1826172,12.5,13,12.5c-0.0751953,0-0.1513672-0.0166016-0.2236328-0.0527344L12,12.0585938   l-0.7763672,0.3886719c-0.2480469,0.1240234-0.546875,0.0224609-0.6708984-0.2236328   c-0.1230469-0.2470703-0.0234375-0.546875,0.2236328-0.6708984l1-0.5c0.140625-0.0703125,0.3066406-0.0703125,0.4472656,0l1,0.5   C13.4707031,11.6767578,13.5703125,11.9765625,13.4472656,12.2236328z M16.5,14   c-0.0751953,0-0.1513672-0.0166016-0.2236328-0.0527344L15.5,13.5585938l-0.7763672,0.3886719   c-0.2470703,0.1240234-0.546875,0.0224609-0.6708984-0.2236328c-0.1230469-0.2470703-0.0234375-0.546875,0.2236328-0.6708984l1-0.5   c0.140625-0.0703125,0.3066406-0.0703125,0.4472656,0l1,0.5c0.2470703,0.1240234,0.3466797,0.4238281,0.2236328,0.6708984   C16.859375,13.8984375,16.6826172,14,16.5,14z" fill="#303C42"/><path d="M18.9419556,7.7160916c0.5949097-0.1597328,1.24646-0.407969,1.8353882-0.8004956   c0.2294922-0.1533241,0.2919922-0.4638786,0.1386719-0.6933765c-0.1542969-0.231451-0.4658203-0.2919993-0.6933594-0.1386752   c-0.5465698,0.3643885-1.1714478,0.5794821-1.7280273,0.7116871c-0.2089233-0.4143167-0.4152222-0.8050122-0.6125488-1.1622601   C18.4291992,5.2815833,19.0165405,4.9995332,19.5,4.9995332c0.2763672,0,0.5-0.2236385,0.5-0.5000124   s-0.2236328-0.5000122-0.5-0.5000122c-0.7026367,0-1.4553833,0.3495567-2.1139526,0.7646673   c-0.4077759-0.6911182-0.7354126-1.1941824-0.8870239-1.4199569c-0.0429688-2.5996733-1.1474609-3.2276185-1.2753906-3.292073   C15.03125-0.042583,14.7978516-0.0064493,14.6464844,0.1458982c-0.7353516,0.7353696-1.2138672,1.4678094-1.4404297,1.8535612   h-2.4121094c-0.2265625-0.3857517-0.7050781-1.1181916-1.4404297-1.8535612   C9.2021484-0.0064493,8.9697266-0.042583,8.7763672,0.0521459C8.6484375,0.1166006,7.5439453,0.7445457,7.5009766,3.344219   c-0.1516113,0.2257745-0.479187,0.7287776-0.8869629,1.4198959C5.9554443,4.3490043,5.2026367,3.9995086,4.5,3.9995086   c-0.2763672,0-0.5,0.2236383-0.5,0.5000122s0.2236328,0.5000124,0.5,0.5000124   c0.4824219,0,1.0700073,0.2824774,1.6175537,0.6341705C5.920166,5.9911346,5.7137451,6.3819523,5.5046997,6.7965131   c-0.5550537-0.1320219-1.178833-0.3474207-1.727356-0.7129688C3.5498047,5.9311967,3.2373047,5.991745,3.0839844,6.2222195   C2.9306641,6.4517174,2.9931641,6.7622719,3.2226563,6.915596c0.5889282,0.3924656,1.2404785,0.6407628,1.8353882,0.8004956   C3.9945068,9.9993505,3,12.8418274,3,15.4997911c0,4.1592817,3.4960938,7.7052679,3.6455078,7.8537092   c0.0546875,0.0546875,0.1220703,0.0966816,0.1953125,0.1210957C6.9052734,23.4960823,8.4482422,24,11,24   c0.1328125,0,0.2597656-0.0527363,0.3535156-0.1464882l0.3535156-0.3535233h0.5859375l0.3535156,0.3535233   C12.7402344,23.9472637,12.8671875,24,13,24c2.5517578,0,4.0947266-0.5039177,4.1591797-0.525404   c0.0732422-0.0244141,0.140625-0.0664082,0.1953125-0.1210957C17.5039063,23.2050591,21,19.6590729,21,15.4997911   C21,12.8418274,20.0054932,9.9993505,18.9419556,7.7160916z M14.5,4c0.2763672,0,0.2647057,0.4412799,0.2647057,0.7176471   C15.0410728,4.7176471,15.5,4.7236328,15.5,5c0,0.5517578-0.4482422,1-1,1s-1-0.4482422-1-1S13.9482422,4,14.5,4z    M11.0380859,5.8085938C11.1152344,5.6220703,11.2978516,5.5,11.5,5.5h1c0.2021484,0,0.3847656,0.1220703,0.4619141,0.3085938   s0.0341797,0.4023438-0.1083984,0.5449219l-0.5,0.5C12.2558594,6.9511719,12.1279297,7,12,7   s-0.2558594-0.0488281-0.3535156-0.1464844l-0.5-0.5C11.0039063,6.2109375,10.9609375,5.9951172,11.0380859,5.8085938z M9.5,4   c0.2763672,0,0.2647057,0.4412799,0.2647057,0.7176471C10.0410728,4.7176471,10.5,4.7236328,10.5,5c0,0.5517578-0.4482422,1-1,1   s-1-0.4482422-1-1S8.9482422,4,9.5,4z M12,22c-3.5839844,0-6.5-3.140625-6.5-7S8.4160156,8,12,8s6.5,3.140625,6.5,7   S15.5839844,22,12,22z" fill="#303C42"/></g><g/><g/><g/><g/><g/><g/><g/><g/><g/><g/><g/><g/><g/><g/><g/></svg>