<?xml version="1.0" encoding="UTF-8" standalone="no"?>
<!DOCTYPE svg PUBLIC "-//W3C//DTD SVG 1.1//EN"
 "http://www.w3.org/Graphics/SVG/1.1/DTD/svg11.dtd">
<!-- Generated by graphviz version 2.38.0 (20140413.2041)
 -->
<!-- Title: Tree Pages: 1 -->
<svg width="963pt" height="671pt"
 viewBox="0.00 0.00 963.00 671.00" xmlns="http://www.w3.org/2000/svg" xmlns:xlink="http://www.w3.org/1999/xlink">
<g id="graph0" class="graph" transform="scale(1 1) rotate(0) translate(4 667)">
<title>Tree</title>
<polygon fill="white" stroke="none" points="-4,4 -4,-667 959,-667 959,4 -4,4"/>
<!-- 0 -->
<g id="node1" class="node"><title>0</title>
<path fill="none" stroke="black" d="M536,-663C536,-663 423,-663 423,-663 417,-663 411,-657 411,-651 411,-651 411,-592 411,-592 411,-586 417,-580 423,-580 423,-580 536,-580 536,-580 542,-580 548,-586 548,-592 548,-592 548,-651 548,-651 548,-657 542,-663 536,-663"/>
<text text-anchor="start" x="436" y="-647.8" font-family="Helvetica,sans-Serif" font-size="14.00">花瓣宽度 ≤ 0.8</text>
<text text-anchor="start" x="442" y="-632.8" font-family="Helvetica,sans-Serif" font-size="14.00">gini = 0.664</text>
<text text-anchor="start" x="432" y="-617.8" font-family="Helvetica,sans-Serif" font-size="14.00">samples = 105</text>
<text text-anchor="start" x="419" y="-602.8" font-family="Helvetica,sans-Serif" font-size="14.00">value = [31, 37, 37]</text>
<text text-anchor="start" x="423" y="-587.8" font-family="Helvetica,sans-Serif" font-size="14.00">class = 变色鸢尾花</text>
</g>
<!-- 1 -->
<g id="node2" class="node"><title>1</title>
<path fill="#e58139" stroke="black" d="M457,-536.5C457,-536.5 360,-536.5 360,-536.5 354,-536.5 348,-530.5 348,-524.5 348,-524.5 348,-480.5 348,-480.5 348,-474.5 354,-468.5 360,-468.5 360,-468.5 457,-468.5 457,-468.5 463,-468.5 469,-474.5 469,-480.5 469,-480.5 469,-524.5 469,-524.5 469,-530.5 463,-536.5 457,-536.5"/>
<text text-anchor="start" x="379.5" y="-521.3" font-family="Helvetica,sans-Serif" font-size="14.00">gini = 0.0</text>
<text text-anchor="start" x="365" y="-506.3" font-family="Helvetica,sans-Serif" font-size="14.00">samples = 31</text>
<text text-anchor="start" x="356" y="-491.3" font-family="Helvetica,sans-Serif" font-size="14.00">value = [31, 0, 0]</text>
<text text-anchor="start" x="358.5" y="-476.3" font-family="Helvetica,sans-Serif" font-size="14.00">class = 山鸢尾花</text>
</g>
<!-- 0&#45;&gt;1 -->
<g id="edge1" class="edge"><title>0&#45;&gt;1</title>
<path fill="none" stroke="black" d="M454.867,-579.907C448.104,-568.763 440.758,-556.658 433.95,-545.439"/>
<polygon fill="black" stroke="black" points="436.807,-543.4 428.627,-536.667 430.823,-547.032 436.807,-543.4"/>
<text text-anchor="middle" x="422.685" y="-557.251" font-family="Helvetica,sans-Serif" font-size="14.00">True</text>
</g>
<!-- 2 -->
<g id="node3" class="node"><title>2</title>
<path fill="none" stroke="black" d="M604,-544C604,-544 499,-544 499,-544 493,-544 487,-538 487,-532 487,-532 487,-473 487,-473 487,-467 493,-461 499,-461 499,-461 604,-461 604,-461 610,-461 616,-467 616,-473 616,-473 616,-532 616,-532 616,-538 610,-544 604,-544"/>
<text text-anchor="start" x="504" y="-528.8" font-family="Helvetica,sans-Serif" font-size="14.00">花瓣宽度 ≤ 1.75</text>
<text text-anchor="start" x="522.5" y="-513.8" font-family="Helvetica,sans-Serif" font-size="14.00">gini = 0.5</text>
<text text-anchor="start" x="508" y="-498.8" font-family="Helvetica,sans-Serif" font-size="14.00">samples = 74</text>
<text text-anchor="start" x="495" y="-483.8" font-family="Helvetica,sans-Serif" font-size="14.00">value = [0, 37, 37]</text>
<text text-anchor="start" x="495" y="-468.8" font-family="Helvetica,sans-Serif" font-size="14.00">class = 变色鸢尾花</text>
</g>
<!-- 0&#45;&gt;2 -->
<g id="edge2" class="edge"><title>0&#45;&gt;2</title>
<path fill="none" stroke="black" d="M504.48,-579.907C509.897,-571.105 515.683,-561.703 521.277,-552.612"/>
<polygon fill="black" stroke="black" points="524.304,-554.372 526.564,-544.021 518.342,-550.703 524.304,-554.372"/>
<text text-anchor="middle" x="532.355" y="-564.641" font-family="Helvetica,sans-Serif" font-size="14.00">False</text>
</g>
<!-- 3 -->
<g id="node4" class="node"><title>3</title>
<path fill="#39e581" fill-opacity="0.862745" stroke="black" d="M517,-425C517,-425 412,-425 412,-425 406,-425 400,-419 400,-413 400,-413 400,-354 400,-354 400,-348 406,-342 412,-342 412,-342 517,-342 517,-342 523,-342 529,-348 529,-354 529,-354 529,-413 529,-413 529,-419 523,-425 517,-425"/>
<text text-anchor="start" x="417" y="-409.8" font-family="Helvetica,sans-Serif" font-size="14.00">花瓣长度 ≤ 4.95</text>
<text text-anchor="start" x="427" y="-394.8" font-family="Helvetica,sans-Serif" font-size="14.00">gini = 0.214</text>
<text text-anchor="start" x="421" y="-379.8" font-family="Helvetica,sans-Serif" font-size="14.00">samples = 41</text>
<text text-anchor="start" x="412" y="-364.8" font-family="Helvetica,sans-Serif" font-size="14.00">value = [0, 36, 5]</text>
<text text-anchor="start" x="408" y="-349.8" font-family="Helvetica,sans-Serif" font-size="14.00">class = 变色鸢尾花</text>
</g>
<!-- 2&#45;&gt;3 -->
<g id="edge3" class="edge"><title>2&#45;&gt;3</title>
<path fill="none" stroke="black" d="M521.316,-460.907C514.635,-451.923 507.491,-442.315 500.601,-433.05"/>
<polygon fill="black" stroke="black" points="503.407,-430.957 494.631,-425.021 497.789,-435.134 503.407,-430.957"/>
</g>
<!-- 12 -->
<g id="node13" class="node"><title>12</title>
<path fill="#8139e5" fill-opacity="0.968627" stroke="black" d="M770,-425C770,-425 639,-425 639,-425 633,-425 627,-419 627,-413 627,-413 627,-354 627,-354 627,-348 633,-342 639,-342 639,-342 770,-342 770,-342 776,-342 782,-348 782,-354 782,-354 782,-413 782,-413 782,-419 776,-425 770,-425"/>
<text text-anchor="start" x="657" y="-409.8" font-family="Helvetica,sans-Serif" font-size="14.00">花瓣长度 ≤ 4.85</text>
<text text-anchor="start" x="667" y="-394.8" font-family="Helvetica,sans-Serif" font-size="14.00">gini = 0.059</text>
<text text-anchor="start" x="661" y="-379.8" font-family="Helvetica,sans-Serif" font-size="14.00">samples = 33</text>
<text text-anchor="start" x="652" y="-364.8" font-family="Helvetica,sans-Serif" font-size="14.00">value = [0, 1, 32]</text>
<text text-anchor="start" x="635" y="-349.8" font-family="Helvetica,sans-Serif" font-size="14.00">class = 维吉尼亚鸢尾花</text>
</g>
<!-- 2&#45;&gt;12 -->
<g id="edge12" class="edge"><title>2&#45;&gt;12</title>
<path fill="none" stroke="black" d="M604.583,-460.907C617.043,-451.379 630.422,-441.148 643.209,-431.37"/>
<polygon fill="black" stroke="black" points="645.694,-433.876 651.511,-425.021 641.442,-428.315 645.694,-433.876"/>
</g>
<!-- 4 -->
<g id="node5" class="node"><title>4</title>
<path fill="#39e581" fill-opacity="0.972549" stroke="black" d="M277,-306C277,-306 172,-306 172,-306 166,-306 160,-300 160,-294 160,-294 160,-235 160,-235 160,-229 166,-223 172,-223 172,-223 277,-223 277,-223 283,-223 289,-229 289,-235 289,-235 289,-294 289,-294 289,-300 283,-306 277,-306"/>
<text text-anchor="start" x="181" y="-290.8" font-family="Helvetica,sans-Serif" font-size="14.00">花瓣宽度 ≤ 1.6</text>
<text text-anchor="start" x="187" y="-275.8" font-family="Helvetica,sans-Serif" font-size="14.00">gini = 0.056</text>
<text text-anchor="start" x="181" y="-260.8" font-family="Helvetica,sans-Serif" font-size="14.00">samples = 35</text>
<text text-anchor="start" x="172" y="-245.8" font-family="Helvetica,sans-Serif" font-size="14.00">value = [0, 34, 1]</text>
<text text-anchor="start" x="168" y="-230.8" font-family="Helvetica,sans-Serif" font-size="14.00">class = 变色鸢尾花</text>
</g>
<!-- 3&#45;&gt;4 -->
<g id="edge4" class="edge"><title>3&#45;&gt;4</title>
<path fill="none" stroke="black" d="M399.869,-350.992C368.523,-335.711 330.722,-317.283 298.253,-301.455"/>
<polygon fill="black" stroke="black" points="299.769,-298.3 289.247,-297.064 296.702,-304.592 299.769,-298.3"/>
</g>
<!-- 7 -->
<g id="node8" class="node"><title>7</title>
<path fill="#8139e5" fill-opacity="0.498039" stroke="black" d="M530,-306C530,-306 399,-306 399,-306 393,-306 387,-300 387,-294 387,-294 387,-235 387,-235 387,-229 393,-223 399,-223 399,-223 530,-223 530,-223 536,-223 542,-229 542,-235 542,-235 542,-294 542,-294 542,-300 536,-306 530,-306"/>
<text text-anchor="start" x="417" y="-290.8" font-family="Helvetica,sans-Serif" font-size="14.00">花瓣宽度 ≤ 1.55</text>
<text text-anchor="start" x="427" y="-275.8" font-family="Helvetica,sans-Serif" font-size="14.00">gini = 0.444</text>
<text text-anchor="start" x="425" y="-260.8" font-family="Helvetica,sans-Serif" font-size="14.00">samples = 6</text>
<text text-anchor="start" x="416" y="-245.8" font-family="Helvetica,sans-Serif" font-size="14.00">value = [0, 2, 4]</text>
<text text-anchor="start" x="395" y="-230.8" font-family="Helvetica,sans-Serif" font-size="14.00">class = 维吉尼亚鸢尾花</text>
</g>
<!-- 3&#45;&gt;7 -->
<g id="edge7" class="edge"><title>3&#45;&gt;7</title>
<path fill="none" stroke="black" d="M464.5,-341.907C464.5,-333.649 464.5,-324.864 464.5,-316.302"/>
<polygon fill="black" stroke="black" points="468,-316.021 464.5,-306.021 461,-316.021 468,-316.021"/>
</g>
<!-- 5 -->
<g id="node6" class="node"><title>5</title>
<path fill="#39e581" stroke="black" d="M117,-179.5C117,-179.5 12,-179.5 12,-179.5 6,-179.5 0,-173.5 0,-167.5 0,-167.5 0,-123.5 0,-123.5 0,-117.5 6,-111.5 12,-111.5 12,-111.5 117,-111.5 117,-111.5 123,-111.5 129,-117.5 129,-123.5 129,-123.5 129,-167.5 129,-167.5 129,-173.5 123,-179.5 117,-179.5"/>
<text text-anchor="start" x="35.5" y="-164.3" font-family="Helvetica,sans-Serif" font-size="14.00">gini = 0.0</text>
<text text-anchor="start" x="21" y="-149.3" font-family="Helvetica,sans-Serif" font-size="14.00">samples = 34</text>
<text text-anchor="start" x="12" y="-134.3" font-family="Helvetica,sans-Serif" font-size="14.00">value = [0, 34, 0]</text>
<text text-anchor="start" x="8" y="-119.3" font-family="Helvetica,sans-Serif" font-size="14.00">class = 变色鸢尾花</text>
</g>
<!-- 4&#45;&gt;5 -->
<g id="edge5" class="edge"><title>4&#45;&gt;5</title>
<path fill="none" stroke="black" d="M168.989,-222.907C152.541,-210.88 134.564,-197.735 118.231,-185.791"/>
<polygon fill="black" stroke="black" points="119.995,-182.744 109.856,-179.667 115.863,-188.395 119.995,-182.744"/>
</g>
<!-- 6 -->
<g id="node7" class="node"><title>6</title>
<path fill="#8139e5" stroke="black" d="M290,-179.5C290,-179.5 159,-179.5 159,-179.5 153,-179.5 147,-173.5 147,-167.5 147,-167.5 147,-123.5 147,-123.5 147,-117.5 153,-111.5 159,-111.5 159,-111.5 290,-111.5 290,-111.5 296,-111.5 302,-117.5 302,-123.5 302,-123.5 302,-167.5 302,-167.5 302,-173.5 296,-179.5 290,-179.5"/>
<text text-anchor="start" x="195.5" y="-164.3" font-family="Helvetica,sans-Serif" font-size="14.00">gini = 0.0</text>
<text text-anchor="start" x="185" y="-149.3" font-family="Helvetica,sans-Serif" font-size="14.00">samples = 1</text>
<text text-anchor="start" x="176" y="-134.3" font-family="Helvetica,sans-Serif" font-size="14.00">value = [0, 0, 1]</text>
<text text-anchor="start" x="155" y="-119.3" font-family="Helvetica,sans-Serif" font-size="14.00">class = 维吉尼亚鸢尾花</text>
</g>
<!-- 4&#45;&gt;6 -->
<g id="edge6" class="edge"><title>4&#45;&gt;6</title>
<path fill="none" stroke="black" d="M224.5,-222.907C224.5,-212.204 224.5,-200.615 224.5,-189.776"/>
<polygon fill="black" stroke="black" points="228,-189.667 224.5,-179.667 221,-189.667 228,-189.667"/>
</g>
<!-- 8 -->
<g id="node9" class="node"><title>8</title>
<path fill="#8139e5" stroke="black" d="M463,-179.5C463,-179.5 332,-179.5 332,-179.5 326,-179.5 320,-173.5 320,-167.5 320,-167.5 320,-123.5 320,-123.5 320,-117.5 326,-111.5 332,-111.5 332,-111.5 463,-111.5 463,-111.5 469,-111.5 475,-117.5 475,-123.5 475,-123.5 475,-167.5 475,-167.5 475,-173.5 469,-179.5 463,-179.5"/>
<text text-anchor="start" x="368.5" y="-164.3" font-family="Helvetica,sans-Serif" font-size="14.00">gini = 0.0</text>
<text text-anchor="start" x="358" y="-149.3" font-family="Helvetica,sans-Serif" font-size="14.00">samples = 3</text>
<text text-anchor="start" x="349" y="-134.3" font-family="Helvetica,sans-Serif" font-size="14.00">value = [0, 0, 3]</text>
<text text-anchor="start" x="328" y="-119.3" font-family="Helvetica,sans-Serif" font-size="14.00">class = 维吉尼亚鸢尾花</text>
</g>
<!-- 7&#45;&gt;8 -->
<g id="edge8" class="edge"><title>7&#45;&gt;8</title>
<path fill="none" stroke="black" d="M441.255,-222.907C434.873,-211.763 427.941,-199.658 421.516,-188.439"/>
<polygon fill="black" stroke="black" points="424.5,-186.606 416.493,-179.667 418.425,-190.084 424.5,-186.606"/>
</g>
<!-- 9 -->
<g id="node10" class="node"><title>9</title>
<path fill="#39e581" fill-opacity="0.498039" stroke="black" d="M610,-187C610,-187 505,-187 505,-187 499,-187 493,-181 493,-175 493,-175 493,-116 493,-116 493,-110 499,-104 505,-104 505,-104 610,-104 610,-104 616,-104 622,-110 622,-116 622,-116 622,-175 622,-175 622,-181 616,-187 610,-187"/>
<text text-anchor="start" x="510" y="-171.8" font-family="Helvetica,sans-Serif" font-size="14.00">花瓣长度 ≤ 5.45</text>
<text text-anchor="start" x="520" y="-156.8" font-family="Helvetica,sans-Serif" font-size="14.00">gini = 0.444</text>
<text text-anchor="start" x="518" y="-141.8" font-family="Helvetica,sans-Serif" font-size="14.00">samples = 3</text>
<text text-anchor="start" x="509" y="-126.8" font-family="Helvetica,sans-Serif" font-size="14.00">value = [0, 2, 1]</text>
<text text-anchor="start" x="501" y="-111.8" font-family="Helvetica,sans-Serif" font-size="14.00">class = 变色鸢尾花</text>
</g>
<!-- 7&#45;&gt;9 -->
<g id="edge9" class="edge"><title>7&#45;&gt;9</title>
<path fill="none" stroke="black" d="M496.766,-222.907C503.907,-213.923 511.544,-204.315 518.909,-195.05"/>
<polygon fill="black" stroke="black" points="521.809,-197.027 525.291,-187.021 516.329,-192.671 521.809,-197.027"/>
</g>
<!-- 10 -->
<g id="node11" class="node"><title>10</title>
<path fill="#39e581" stroke="black" d="M530,-68C530,-68 425,-68 425,-68 419,-68 413,-62 413,-56 413,-56 413,-12 413,-12 413,-6 419,-0 425,-0 425,-0 530,-0 530,-0 536,-0 542,-6 542,-12 542,-12 542,-56 542,-56 542,-62 536,-68 530,-68"/>
<text text-anchor="start" x="448.5" y="-52.8" font-family="Helvetica,sans-Serif" font-size="14.00">gini = 0.0</text>
<text text-anchor="start" x="438" y="-37.8" font-family="Helvetica,sans-Serif" font-size="14.00">samples = 2</text>
<text text-anchor="start" x="429" y="-22.8" font-family="Helvetica,sans-Serif" font-size="14.00">value = [0, 2, 0]</text>
<text text-anchor="start" x="421" y="-7.8" font-family="Helvetica,sans-Serif" font-size="14.00">class = 变色鸢尾花</text>
</g>
<!-- 9&#45;&gt;10 -->
<g id="edge10" class="edge"><title>9&#45;&gt;10</title>
<path fill="none" stroke="black" d="M527.711,-103.726C521.247,-94.879 514.402,-85.51 507.915,-76.6303"/>
<polygon fill="black" stroke="black" points="510.554,-74.3095 501.828,-68.2996 504.902,-78.439 510.554,-74.3095"/>
</g>
<!-- 11 -->
<g id="node12" class="node"><title>11</title>
<path fill="#8139e5" stroke="black" d="M703,-68C703,-68 572,-68 572,-68 566,-68 560,-62 560,-56 560,-56 560,-12 560,-12 560,-6 566,-0 572,-0 572,-0 703,-0 703,-0 709,-0 715,-6 715,-12 715,-12 715,-56 715,-56 715,-62 709,-68 703,-68"/>
<text text-anchor="start" x="608.5" y="-52.8" font-family="Helvetica,sans-Serif" font-size="14.00">gini = 0.0</text>
<text text-anchor="start" x="598" y="-37.8" font-family="Helvetica,sans-Serif" font-size="14.00">samples = 1</text>
<text text-anchor="start" x="589" y="-22.8" font-family="Helvetica,sans-Serif" font-size="14.00">value = [0, 0, 1]</text>
<text text-anchor="start" x="568" y="-7.8" font-family="Helvetica,sans-Serif" font-size="14.00">class = 维吉尼亚鸢尾花</text>
</g>
<!-- 9&#45;&gt;11 -->
<g id="edge11" class="edge"><title>9&#45;&gt;11</title>
<path fill="none" stroke="black" d="M587.289,-103.726C593.753,-94.879 600.598,-85.51 607.085,-76.6303"/>
<polygon fill="black" stroke="black" points="610.098,-78.439 613.172,-68.2996 604.446,-74.3095 610.098,-78.439"/>
</g>
<!-- 13 -->
<g id="node14" class="node"><title>13</title>
<path fill="#8139e5" fill-opacity="0.498039" stroke="black" d="M770,-306C770,-306 639,-306 639,-306 633,-306 627,-300 627,-294 627,-294 627,-235 627,-235 627,-229 633,-223 639,-223 639,-223 770,-223 770,-223 776,-223 782,-229 782,-235 782,-235 782,-294 782,-294 782,-300 776,-306 770,-306"/>
<text text-anchor="start" x="657" y="-290.8" font-family="Helvetica,sans-Serif" font-size="14.00">花萼长度 ≤ 5.95</text>
<text text-anchor="start" x="667" y="-275.8" font-family="Helvetica,sans-Serif" font-size="14.00">gini = 0.444</text>
<text text-anchor="start" x="665" y="-260.8" font-family="Helvetica,sans-Serif" font-size="14.00">samples = 3</text>
<text text-anchor="start" x="656" y="-245.8" font-family="Helvetica,sans-Serif" font-size="14.00">value = [0, 1, 2]</text>
<text text-anchor="start" x="635" y="-230.8" font-family="Helvetica,sans-Serif" font-size="14.00">class = 维吉尼亚鸢尾花</text>
</g>
<!-- 12&#45;&gt;13 -->
<g id="edge13" class="edge"><title>12&#45;&gt;13</title>
<path fill="none" stroke="black" d="M704.5,-341.907C704.5,-333.649 704.5,-324.864 704.5,-316.302"/>
<polygon fill="black" stroke="black" points="708,-316.021 704.5,-306.021 701,-316.021 708,-316.021"/>
</g>
<!-- 16 -->
<g id="node17" class="node"><title>16</title>
<path fill="#8139e5" stroke="black" d="M943,-298.5C943,-298.5 812,-298.5 812,-298.5 806,-298.5 800,-292.5 800,-286.5 800,-286.5 800,-242.5 800,-242.5 800,-236.5 806,-230.5 812,-230.5 812,-230.5 943,-230.5 943,-230.5 949,-230.5 955,-236.5 955,-242.5 955,-242.5 955,-286.5 955,-286.5 955,-292.5 949,-298.5 943,-298.5"/>
<text text-anchor="start" x="848.5" y="-283.3" font-family="Helvetica,sans-Serif" font-size="14.00">gini = 0.0</text>
<text text-anchor="start" x="834" y="-268.3" font-family="Helvetica,sans-Serif" font-size="14.00">samples = 30</text>
<text text-anchor="start" x="825" y="-253.3" font-family="Helvetica,sans-Serif" font-size="14.00">value = [0, 0, 30]</text>
<text text-anchor="start" x="808" y="-238.3" font-family="Helvetica,sans-Serif" font-size="14.00">class = 维吉尼亚鸢尾花</text>
</g>
<!-- 12&#45;&gt;16 -->
<g id="edge16" class="edge"><title>12&#45;&gt;16</title>
<path fill="none" stroke="black" d="M764.521,-341.907C782.469,-329.769 802.1,-316.493 819.889,-304.462"/>
<polygon fill="black" stroke="black" points="822.136,-307.168 828.458,-298.667 818.214,-301.37 822.136,-307.168"/>
</g>
<!-- 14 -->
<g id="node15" class="node"><title>14</title>
<path fill="#39e581" stroke="black" d="M757,-179.5C757,-179.5 652,-179.5 652,-179.5 646,-179.5 640,-173.5 640,-167.5 640,-167.5 640,-123.5 640,-123.5 640,-117.5 646,-111.5 652,-111.5 652,-111.5 757,-111.5 757,-111.5 763,-111.5 769,-117.5 769,-123.5 769,-123.5 769,-167.5 769,-167.5 769,-173.5 763,-179.5 757,-179.5"/>
<text text-anchor="start" x="675.5" y="-164.3" font-family="Helvetica,sans-Serif" font-size="14.00">gini = 0.0</text>
<text text-anchor="start" x="665" y="-149.3" font-family="Helvetica,sans-Serif" font-size="14.00">samples = 1</text>
<text text-anchor="start" x="656" y="-134.3" font-family="Helvetica,sans-Serif" font-size="14.00">value = [0, 1, 0]</text>
<text text-anchor="start" x="648" y="-119.3" font-family="Helvetica,sans-Serif" font-size="14.00">class = 变色鸢尾花</text>
</g>
<!-- 13&#45;&gt;14 -->
<g id="edge14" class="edge"><title>13&#45;&gt;14</title>
<path fill="none" stroke="black" d="M704.5,-222.907C704.5,-212.204 704.5,-200.615 704.5,-189.776"/>
<polygon fill="black" stroke="black" points="708,-189.667 704.5,-179.667 701,-189.667 708,-189.667"/>
</g>
<!-- 15 -->
<g id="node16" class="node"><title>15</title>
<path fill="#8139e5" stroke="black" d="M930,-179.5C930,-179.5 799,-179.5 799,-179.5 793,-179.5 787,-173.5 787,-167.5 787,-167.5 787,-123.5 787,-123.5 787,-117.5 793,-111.5 799,-111.5 799,-111.5 930,-111.5 930,-111.5 936,-111.5 942,-117.5 942,-123.5 942,-123.5 942,-167.5 942,-167.5 942,-173.5 936,-179.5 930,-179.5"/>
<text text-anchor="start" x="835.5" y="-164.3" font-family="Helvetica,sans-Serif" font-size="14.00">gini = 0.0</text>
<text text-anchor="start" x="825" y="-149.3" font-family="Helvetica,sans-Serif" font-size="14.00">samples = 2</text>
<text text-anchor="start" x="816" y="-134.3" font-family="Helvetica,sans-Serif" font-size="14.00">value = [0, 0, 2]</text>
<text text-anchor="start" x="795" y="-119.3" font-family="Helvetica,sans-Serif" font-size="14.00">class = 维吉尼亚鸢尾花</text>
</g>
<!-- 13&#45;&gt;15 -->
<g id="edge15" class="edge"><title>13&#45;&gt;15</title>
<path fill="none" stroke="black" d="M760.011,-222.907C776.459,-210.88 794.436,-197.735 810.769,-185.791"/>
<polygon fill="black" stroke="black" points="813.137,-188.395 819.144,-179.667 809.005,-182.744 813.137,-188.395"/>
</g>
</g>
</svg>
